HIERARCHY
ROOT Hips
{
	OFFSET -0.179506 -22.333345 2.821913
	CHANNELS 6 Xposition Yposition Zposition Zrotation Yrotation Xrotation 
	JOINT LeftUpLeg
	{
		OFFSET 6.951974 -9.140623 -0.681533
		CHANNELS 3 Zrotation Yrotation Xrotation
		JOINT LeftLeg
		{
			OFFSET 3.427654 -37.519855 -0.449580
			CHANNELS 3 Zrotation Yrotation Xrotation
			JOINT LeftFoot
			{
				OFFSET -1.359570 -39.796059 -4.369333
				CHANNELS 3 Zrotation Yrotation Xrotation
				JOINT LeftToe
				{
					OFFSET 2.635814 -5.579078 11.928840
					CHANNELS 3 Zrotation Yrotation Xrotation
					End Site
					{
						OFFSET 0.000000 0.000000 0.000000
					}
				}
			}
		}
	}
	JOINT RightUpLeg
	{
		OFFSET -6.767048 -9.052170 -0.431982
		CHANNELS 3 Zrotation Yrotation Xrotation
		JOINT RightLeg
		{
			OFFSET -3.829005 -38.256897 -0.885003
			CHANNELS 3 Zrotation Yrotation Xrotation
			JOINT RightFoot
			{
				OFFSET 1.577377 -39.841461 -4.231180
				CHANNELS 3 Zrotation Yrotation Xrotation
				JOINT RightToe
				{
					OFFSET -2.537174 -4.814398 12.334795
					CHANNELS 3 Zrotation Yrotation Xrotation
					End Site
					{
						OFFSET 0.000000 0.000000 0.000000
					}
				}
			}
		}
	}
	JOINT Spine
	{
		OFFSET -0.253288 10.896323 -2.669631
		CHANNELS 3 Zrotation Yrotation Xrotation
		JOINT Spine1
		{
			OFFSET 0.548704 13.518043 0.109247
			CHANNELS 3 Zrotation Yrotation Xrotation
			JOINT Spine2
			{
				OFFSET 0.145701 5.292222 2.542457
				CHANNELS 3 Zrotation Yrotation Xrotation
				JOINT Neck
				{
					OFFSET -0.277840 21.387037 -4.285703
					CHANNELS 3 Zrotation Yrotation Xrotation
					JOINT Head
					{
						OFFSET 0.515184 6.496960 5.134897
						CHANNELS 3 Zrotation Yrotation Xrotation
						End Site
						{
							OFFSET 0.000000 0.000000 0.000000
						}
					}
				}
				JOINT LeftShoulder
				{
					OFFSET 7.884473 12.174932 -3.408961
					CHANNELS 3 Zrotation Yrotation Xrotation
					JOINT LeftArm
					{
						OFFSET 9.097692 3.046888 -0.886815
						CHANNELS 3 Zrotation Yrotation Xrotation
						JOINT LeftForeArm
						{
							OFFSET 25.961220 -1.277207 -2.745643
							CHANNELS 3 Zrotation Yrotation Xrotation
							JOINT LeftHand
							{
								OFFSET 24.923361 0.898606 -0.117091
								CHANNELS 3 Zrotation Yrotation Xrotation
								End Site
								{
									OFFSET 0.000000 0.000000 0.000000
								}
							}
						}
					}
				}
				JOINT RightShoulder
				{
					OFFSET -8.175920 11.883285 -3.861528
					CHANNELS 3 Zrotation Yrotation Xrotation
					JOINT RightArm
					{
						OFFSET -9.601238 3.255117 -0.914307
						CHANNELS 3 Zrotation Yrotation Xrotation
						JOINT RightForeArm
						{
							OFFSET -25.374195 -1.332924 -2.140099
							CHANNELS 3 Zrotation Yrotation Xrotation
							JOINT RightHand
							{
								OFFSET -25.529810 0.777228 -0.555919
								CHANNELS 3 Zrotation Yrotation Xrotation
								End Site
								{
									OFFSET 0.000000 0.000000 0.000000
								}
							}
						}
					}
				}
			}
		}
	}
}
MOTION
Frames: 13
Frame Time: 0.033333
-31.255440 -17.522493 91.439262 -130.383921 -2.924341 89.531736 4.583149 9.530115 2.110333 -3.909258 10.835144 11.538513 -1.245763 2.753624 -14.801693 nan nan nan -5.874660 -13.363015 -9.572296 -0.443337 -29.499166 12.313355 2.930028 -10.861273 -9.911367 nan nan nan 0.140907 0.858130 13.082669 4.487013 -5.538526 -0.854046 3.368847 -1.251945 2.905823 -0.161603 -7.459212 11.761652 4.099780 -8.833842 13.217731 -10.487958 -19.532908 -10.272689 -63.931883 -43.506744 28.330955 128.484294 -87.429036 -106.190910 3.055839 -22.029495 -7.986983 11.212058 10.346168 -6.331680 37.862743 14.573883 8.286314 -121.580467 69.166220 -103.684229 -4.404925 10.791710 -10.680729 
-31.396875 -17.640907 91.418526 -129.801188 -2.753973 89.307560 4.692573 9.752208 2.468850 -3.887489 10.647534 11.193990 -1.323783 2.359526 -14.925293 nan nan nan -5.941585 -13.761803 -9.255506 -0.516264 -29.972166 12.409454 3.064678 -10.725705 -9.888165 nan nan nan 0.384587 -0.060551 13.342230 4.309569 -6.256310 -1.166328 2.882599 -0.174449 2.681114 -0.070297 -7.327901 12.090612 4.391962 -9.041453 13.419163 -9.962195 -18.895148 -10.436403 -64.480027 -43.353985 28.470595 133.500220 -87.284867 -110.863739 3.250088 -21.991343 -8.827604 11.550629 10.485889 -5.814510 38.264508 14.733707 7.879052 -119.453645 69.033262 -101.080327 -3.421591 10.744225 -10.551538 
-31.517149 -17.777298 91.371887 -129.290580 -2.629094 89.023811 4.764466 9.919807 2.859412 -3.834302 10.529917 10.913440 -1.308275 1.951257 -15.056378 nan nan nan -6.086020 -14.021186 -8.941210 -0.656514 -30.422113 12.638833 3.072748 -10.561277 -9.869833 nan nan nan 0.651034 -1.112867 13.297151 4.068846 -7.261725 -0.681293 2.170217 1.225191 2.246347 0.220178 -6.953773 12.173089 4.612509 -9.320455 13.625283 -9.241167 -18.296109 -10.811511 -64.589517 -43.189371 28.342310 139.702260 -87.027797 -116.733608 3.151064 -22.012194 -9.335658 11.923774 10.932237 -5.515936 38.763009 14.837082 7.539910 -117.019820 68.711796 -98.242213 -1.984173 10.987083 -10.161575 
-31.614531 -17.967594 91.365234 -128.797285 -2.362379 88.966617 4.882233 9.765975 2.930237 -3.859427 10.120069 10.637511 -1.238531 2.092228 -15.166108 nan nan nan -5.991452 -13.972398 -8.900133 -0.697194 -30.517803 12.736179 3.281474 -11.029803 -9.802262 nan nan nan 0.243212 0.082948 13.110891 4.570082 -6.275880 -0.948748 3.086223 -0.092578 2.579020 0.194218 -7.883140 11.939763 4.297642 -9.608711 13.702682 -9.852857 -19.238221 -10.342089 -65.102402 -43.811522 28.818824 130.108606 -86.953643 -106.863992 3.265168 -22.078002 -8.748855 11.609285 10.372435 -6.197914 37.835763 14.126112 7.112193 -115.480234 68.348335 -97.118902 -1.942123 10.986586 -10.477897 
-31.698643 -18.154003 91.342682 -128.352865 -2.154513 88.791866 4.985777 9.552478 3.129147 -3.902254 9.855280 10.359052 -1.215524 2.132483 -15.289662 nan nan nan -5.998334 -13.957657 -8.754606 -0.835028 -30.713082 12.968370 3.394916 -11.215093 -9.735202 nan nan nan 0.006498 0.850001 13.167839 4.805617 -5.638563 -0.923542 3.712803 -1.025413 2.460964 0.192390 -8.391225 11.505527 4.167715 -9.928219 14.056014 -10.099499 -19.635629 -10.327406 -65.622544 -44.123731 29.234120 126.496715 -86.695879 -103.953187 3.096402 -22.136589 -7.844017 11.253073 9.935743 -6.699926 37.516075 13.836886 6.856150 -113.613403 68.073135 -95.695573 -2.241347 10.643867 -9.263687 
-31.790195 -18.332855 91.322388 -127.817273 -1.950225 88.689862 5.081379 9.277503 3.167396 -3.931921 9.470172 10.225750 -1.240991 2.205394 -15.430734 nan nan nan -6.000418 -13.979766 -8.693192 -1.038849 -31.021914 13.285281 3.535503 -11.360627 -9.676439 nan nan nan -0.110596 1.021132 13.163024 4.947906 -5.479497 -1.100036 3.989099 -1.314127 2.445390 0.148153 -8.767926 11.470543 4.128993 -9.995955 14.179623 -10.143035 -19.731690 -10.268256 -66.007889 -44.307198 29.403904 127.227670 -86.416121 -105.105366 3.105968 -21.893946 -7.403125 11.052652 9.735707 -6.842488 37.452609 13.743004 6.439345 -111.641034 67.905707 -94.061359 -2.213118 10.542570 -8.367973 
-31.886816 -18.487991 91.298820 -127.287426 -1.743068 88.509746 5.196568 9.108417 3.273116 -3.879660 9.003174 10.214722 -1.265412 2.177538 -15.590062 nan nan nan -6.030187 -14.020217 -8.523054 -1.201421 -31.345885 13.575107 3.636712 -11.463516 -9.722674 nan nan nan -0.178855 1.080474 13.083645 5.050080 -5.486551 -0.917516 4.110288 -1.419884 2.279722 0.257399 -9.030250 11.435239 4.047316 -10.117878 14.192913 -10.104750 -19.758006 -10.216171 -66.407445 -44.449395 29.594257 129.698879 -86.082695 -107.227989 2.990136 -21.319745 -7.245014 11.066256 9.717200 -6.862567 37.355016 13.676935 6.016703 -109.446756 67.569668 -92.077581 -1.890525 10.631498 -8.424421 
-32.025330 -18.558411 91.246544 -126.609569 -1.564799 88.098450 5.388841 9.383999 3.542072 -3.609081 8.688087 10.510063 -1.233410 1.278477 -15.833769 nan nan nan -6.230242 -14.527412 -8.005660 -1.431986 -32.089832 13.972634 3.377112 -10.669896 -9.813287 nan nan nan 0.992176 -2.956802 13.420155 4.196569 -9.101332 -0.711544 1.310729 3.621579 1.684364 1.105206 -6.786738 12.358462 5.053317 -10.617058 14.327467 -7.994561 -17.287040 -11.297583 -66.010267 -43.300936 28.731362 148.674442 -85.501133 -124.748572 3.298305 -20.758279 -9.773533 12.840494 11.428819 -4.754308 39.031778 14.927724 5.410689 -106.362477 67.003307 -87.268581 -1.656690 10.745255 -7.933123 
-32.107170 -18.768572 91.279587 -126.215482 -1.242242 88.158245 5.507789 8.811043 3.429031 -3.679809 8.185422 10.396264 -1.201685 1.851352 -15.879244 nan nan nan -6.102246 -14.194577 -8.076027 -1.248118 -32.071179 13.992523 3.872953 -11.478773 -9.698218 nan nan nan -0.044537 -0.112534 13.177101 5.257995 -6.653938 -1.583345 3.379262 0.307374 2.714085 1.052576 -8.615923 11.909737 4.299644 -11.046155 14.200154 -9.554872 -19.229895 -10.029853 -66.813424 -44.601999 29.580077 131.224932 -85.606056 -106.994533 3.113363 -21.739606 -9.169500 12.051919 10.150585 -6.098664 37.340072 13.813204 5.040751 -105.015381 66.353103 -86.194423 -1.563236 10.773858 -8.233268 
-32.178654 -18.961571 91.247116 -125.901395 -1.079520 87.978233 5.596317 8.415746 3.554219 -3.763194 7.847186 10.435571 -1.158884 2.031065 -16.094729 nan nan nan -6.235350 -13.975277 -7.932499 -1.212835 -32.179593 14.296063 4.016470 -11.831146 -9.711142 nan nan nan -0.579392 1.269580 12.924302 5.684868 -5.647110 -0.885894 4.285905 -1.305633 2.392714 1.197619 -9.235944 11.196093 3.866089 -11.494835 14.423299 -9.966477 -19.829317 -9.801189 -67.195213 -45.244087 29.896248 123.517990 -85.308516 -99.361225 2.758776 -22.914296 -9.402738 11.553709 9.729277 -6.690618 36.935941 13.552469 5.045653 -103.253407 65.346818 -84.489389 -1.331892 10.779570 -8.220128 
-32.270966 -19.120691 91.209229 -125.513202 -0.948407 87.879778 5.659853 8.213002 3.490525 -3.728654 7.652401 10.700311 -1.150816 1.886940 -16.355065 nan nan nan -6.352203 -13.939934 -7.897141 -1.410650 -32.415101 14.743373 4.266424 -11.794309 -9.815502 nan nan nan -0.777007 1.492311 12.819042 5.809715 -5.623783 -0.681503 4.440790 -1.488326 2.155100 1.369521 -9.359430 11.119450 3.767869 -11.807087 14.476021 -9.956067 -19.776979 -9.693239 -67.209367 -45.511414 29.869861 123.875888 -85.026168 -100.330066 1.872744 -23.447498 -9.180796 11.599448 9.628707 -6.675918 36.946213 13.641213 4.947613 -101.358575 64.601408 -82.970304 -0.975064 10.833530 -7.845745 
-32.358791 -19.278503 91.174500 -125.180383 -0.775082 87.714603 5.760241 8.106480 3.505190 -3.667129 7.366784 10.946287 -1.085965 1.792739 -16.516600 nan nan nan -6.460007 -13.991040 -7.874871 -1.638614 -32.550345 15.388982 4.515557 -11.738478 -9.942344 nan nan nan -0.865895 1.612372 12.869531 5.867354 -5.542706 -0.652568 4.490610 -1.544290 2.004045 1.583385 -9.562621 10.960035 3.700963 -12.182515 14.806214 -9.866909 -19.742415 -9.609243 -67.494180 -45.715726 30.002180 124.594467 -84.796469 -100.956398 1.603624 -23.434645 -9.259602 11.638350 9.537217 -6.751314 37.107256 13.634553 4.728303 -99.462751 64.027684 -81.307471 -0.852047 10.887248 -7.766768 
-32.464676 -19.430399 91.154404 -124.818088 -0.562335 87.476477 5.911193 8.046417 3.664813 -3.661390 6.951825 11.046684 -1.035781 1.784578 -16.720227 nan nan nan -6.581040 -13.996372 -7.761520 -1.814812 -32.601299 16.021849 4.666256 -11.813061 -9.944315 nan nan nan -0.864902 1.505970 12.944848 5.897140 -5.536062 -0.682816 4.412931 -1.435687 2.021159 1.849166 -9.736987 10.872495 3.661723 -12.586901 15.081487 -9.742867 -19.536607 -9.608661 -68.146363 -45.799851 30.329624 124.417971 -84.701986 -99.449540 2.016733 -23.353063 -10.082604 11.702713 9.476455 -6.758062 37.280092 13.729659 4.363989 -97.422167 63.613351 -78.981625 -1.146838 11.144162 -8.281908 
